<?xml version="1.0" encoding="iso-8859-1"?>
<!-- Generator: Adobe Illustrator 19.0.0, SVG Export Plug-In . SVG Version: 6.00 Build 0)  -->
<svg version="1.1" id="Capa_1" xmlns="http://www.w3.org/2000/svg" xmlns:xlink="http://www.w3.org/1999/xlink" x="0px" y="0px"
	 viewBox="0 0 512 512" style="enable-background:new 0 0 512 512;" xml:space="preserve">
<path style="fill:#FDD93B;" d="M410.926,350.211L410.926,350.211c-10.986-7.568-17.548-20.056-17.548-33.397V192.127
	c0-77.814-58.444-141.968-133.83-150.985v-13.26c0-11.199-9.078-20.277-20.277-20.277l0,0c-11.199,0-20.277,9.078-20.277,20.277
	v13.8C145.578,52.471,89.22,115.714,89.22,192.127v124.688c0,13.34-6.562,25.828-17.548,33.397l0,0
	c-17.578,12.11-28.076,32.09-28.076,53.435v25.725h395.406v-25.725C439.002,382.301,428.504,362.321,410.926,350.211z"/>
<path style="fill:#FFFFFF;" d="M125.201,185.443l-15.186-0.827c0.327-6.009,1.09-12.054,2.265-17.967l14.916,2.965
	C126.161,174.824,125.489,180.151,125.201,185.443z M130.844,155.847l-14.426-4.81c6.004-18.007,16.13-34.797,29.279-48.556
	c21.534-22.531,50.513-36.509,81.596-39.358l1.388,15.145c-27.426,2.514-52.994,14.846-71.99,34.722
	C145.081,125.136,136.143,139.955,130.844,155.847z"/>
<path style="fill:#FF994D;" d="M149.462,429.37c7.654,42.655,44.951,75.026,89.809,75.026s82.155-32.371,89.809-75.026H149.462z"/>
<path style="fill:#FF6E4A;" d="M329.08,429.37H149.462c1.27,7.079,3.373,13.866,6.175,20.277h167.268
	C325.707,443.236,327.81,436.449,329.08,429.37z"/>
<path style="fill:#F5A800;" d="M285.909,180.974c0,55.905,45.482,101.386,101.386,101.386c2.043,0,4.07-0.068,6.083-0.188v-90.046
	c0-41.064-16.282-78.321-42.734-105.681C312.802,101.169,285.909,137.989,285.909,180.974z"/>
<circle style="fill:#E2324E;" cx="387.295" cy="180.974" r="81.109"/>
<rect x="43.596" y="403.649" style="fill:#F5A800;" width="395.406" height="25.725"/>
<path d="M415.24,343.948c-8.928-6.149-14.258-16.294-14.258-27.135v-24.483h-15.208v24.483c0,15.845,7.79,30.67,20.838,39.658
	c15.52,10.693,24.786,28.327,24.786,47.173v18.122h-93.229H140.373H51.2v-18.121c0-18.846,9.266-36.48,24.786-47.172
	c13.048-8.989,20.838-23.815,20.838-39.659V192.127c0-71.15,52.997-132.593,123.276-142.924l6.498-0.954V27.881
	c0-6.989,5.685-12.673,12.673-12.673c6.989,0,12.673,5.685,12.673,12.673V47.89l6.701,0.802
	c29.458,3.523,56.762,15.884,78.962,35.749l10.141-11.333c-22.846-20.444-50.588-33.698-80.596-38.572v-6.654
	C267.152,12.508,254.645,0,239.271,0S211.39,12.508,211.39,27.881v7.371c-35.004,6.645-66.955,24.963-90.548,52.05
	c-25.296,29.04-39.226,66.268-39.226,104.825v124.687c0,10.84-5.33,20.985-14.258,27.136
	c-19.641,13.531-31.366,35.847-31.366,59.696v33.329h107.343C154.144,480.809,193.501,512,239.271,512s85.127-31.191,95.937-75.026
	h111.398v-33.329C446.606,379.797,434.881,357.48,415.24,343.948z M239.271,496.792c-37.449,0-69.841-24.664-80.211-59.818h160.421
	C309.112,472.128,276.72,496.792,239.271,496.792z"/>
<path d="M387.295,92.261c-48.917,0-88.713,39.796-88.713,88.713s39.796,88.713,88.713,88.713s88.713-39.796,88.713-88.713
	S436.212,92.261,387.295,92.261z M387.295,254.479c-40.531,0-73.505-32.974-73.505-73.505s32.974-73.505,73.505-73.505
	s73.505,32.974,73.505,73.505S427.826,254.479,387.295,254.479z"/>
<rect x="382.733" y="140.42" width="15.208" height="58.804"/>
<rect x="382.733" y="209.362" width="15.208" height="15.208"/>
<rect x="260.562" y="173.37" width="15.208" height="15.208"/>
<rect x="199.731" y="173.37" width="15.208" height="15.208"/>
<rect x="230.147" y="173.37" width="15.208" height="15.208"/>
<g>
</g>
<g>
</g>
<g>
</g>
<g>
</g>
<g>
</g>
<g>
</g>
<g>
</g>
<g>
</g>
<g>
</g>
<g>
</g>
<g>
</g>
<g>
</g>
<g>
</g>
<g>
</g>
<g>
</g>
</svg>
